<svg height="423pt" viewBox="0 0 423.22944 423" width="423pt" xmlns="http://www.w3.org/2000/svg"><path d="m240.148438 36.234375-211.960938 211.960937" fill="#d7e9ff"/><path d="m28.1875 255.023438c-1.746094 0-3.492188-.667969-4.828125-2-2.664063-2.667969-2.664063-6.988282 0-9.652344l211.960937-211.964844c2.667969-2.664062 6.988282-2.664062 9.65625 0 2.664063 2.667969 2.664063 6.988281 0 9.652344l-211.960937 211.964844c-1.335937 1.332031-3.082031 2-4.828125 2zm0 0" fill="#0e65e5"/><path d="m284.984375 81.070312-211.960937 211.964844" fill="#d7e9ff"/><path d="m73.019531 299.859375c-1.742187 0-3.492187-.667969-4.824219-2-2.667968-2.664063-2.667968-6.988281 0-9.652344l211.964844-211.964843c2.667969-2.664063 6.988282-2.664063 9.652344 0 2.667969 2.664062 2.667969 6.988281 0 9.652343l-211.964844 211.964844c-1.332031 1.332031-3.082031 2-4.828125 2zm0 0" fill="#0e65e5"/><path d="m333.902344 129.984375-211.964844 211.964844" fill="#d7e9ff"/><path d="m121.933594 348.777344c-1.746094 0-3.492188-.667969-4.824219-2-2.667969-2.667969-2.667969-6.988282 0-9.652344l211.964844-211.964844c2.664062-2.667968 6.988281-2.667968 9.652343 0 2.667969 2.664063 2.667969 6.984375 0 9.652344l-211.964843 211.964844c-1.332031 1.332031-3.078125 2-4.828125 2zm0 0" fill="#0e65e5"/><path d="m378.738281 174.824219-211.960937 211.964843" fill="#d7e9ff"/><path d="m166.777344 393.613281c-1.746094 0-3.496094-.667969-4.828125-2-2.667969-2.667969-2.667969-6.988281 0-9.652343l211.964843-211.964844c2.667969-2.664063 6.988282-2.664063 9.652344 0 2.667969 2.667968 2.667969 6.988281 0 9.652344l-211.964844 211.964843c-1.335937 1.332031-3.082031 2-4.824218 2zm0 0" fill="#0e65e5"/><path d="m166.777344 28.082031 220.117187 220.113281" fill="#d7e9ff"/><path d="m386.894531 255.023438c-1.746093 0-3.492187-.667969-4.828125-2l-220.117187-220.117188c-2.667969-2.664062-2.667969-6.988281 0-9.652344 2.664062-2.664062 6.984375-2.664062 9.652343 0l220.121094 220.117188c2.664063 2.664062 2.664063 6.984375 0 9.652344-1.335937 1.332031-3.082031 2-4.828125 2zm0 0" fill="#0e65e5"/><path d="m121.9375 72.917969 220.117188 220.117187" fill="#d7e9ff"/><path d="m342.054688 299.859375c-1.746094 0-3.492188-.667969-4.824219-2l-220.121094-220.113281c-2.667969-2.667969-2.667969-6.988282 0-9.652344 2.664063-2.667969 6.984375-2.667969 9.652344 0l220.121093 220.113281c2.664063 2.664063 2.664063 6.988281 0 9.652344-1.335937 1.332031-3.082031 2-4.828124 2zm0 0" fill="#0e65e5"/><path d="m73.023438 121.832031 220.117187 220.117188" fill="#d7e9ff"/><path d="m293.140625 348.777344c-1.746094 0-3.492187-.667969-4.824219-2l-220.121094-220.117188c-2.667968-2.667968-2.667968-6.988281 0-9.652344 2.664063-2.667968 6.988282-2.667968 9.652344 0l220.121094 220.117188c2.664062 2.664062 2.664062 6.984375 0 9.652344-1.335938 1.332031-3.082031 2-4.828125 2zm0 0" fill="#0e65e5"/><path d="m28.1875 166.671875 220.113281 220.117187" fill="#d7e9ff"/><path d="m248.300781 393.613281c-1.746093 0-3.492187-.667969-4.824219-2l-220.117187-220.117187c-2.664063-2.664063-2.664063-6.988282 0-9.652344 2.667969-2.664062 6.988281-2.664062 9.65625 0l220.113281 220.117188c2.664063 2.664062 2.664063 6.988281 0 9.652343-1.335937 1.332031-3.078125 2-4.828125 2zm0 0" fill="#0e65e5"/><path d="m264.601562 11.777344c-6.753906-6.753906-17.703124-6.753906-24.457031 0-6.753906 6.753906-6.753906 17.703125 0 24.457031 6.753907 6.753906 17.703125 6.753906 24.457031 0 6.753907-6.753906 6.753907-17.703125 0-24.457031zm0 0" fill="#288eea"/><path d="m252.382812 48.113281c-6.179687 0-12.359374-2.351562-17.0625-7.054687-9.40625-9.402344-9.40625-24.707032 0-34.109375 9.101563-9.109375 25-9.117188 34.113282 0 9.410156 9.40625 9.410156 24.707031 0 34.109375-4.699219 4.703125-10.878906 7.054687-17.050782 7.054687zm0-34.578125c-2.800781 0-5.429687 1.089844-7.40625 3.066406-4.082031 4.082032-4.082031 10.722657 0 14.804688 3.945313 3.945312 10.839844 3.953125 14.804688 0 1.972656-1.976562 3.066406-4.605469 3.066406-7.402344 0-2.792968-1.09375-5.425781-3.066406-7.402344-1.980469-1.976562-4.605469-3.066406-7.398438-3.066406zm0 0" fill="#0e65e5"/><path d="m309.441406 56.613281c-6.753906-6.753906-17.703125-6.753906-24.457031 0-6.753906 6.753907-6.753906 17.703125 0 24.457031 6.753906 6.753907 17.703125 6.753907 24.457031 0 6.753906-6.753906 6.753906-17.703124 0-24.457031zm0 0" fill="#d7e9ff"/><path d="m297.214844 92.949219c-6.171875 0-12.351563-2.351563-17.054688-7.054688-9.40625-9.402343-9.40625-24.707031 0-34.109375 9.402344-9.40625 24.707032-9.40625 34.105469 0 9.410156 9.40625 9.410156 24.707032 0 34.109375-4.695313 4.703125-10.878906 7.054688-17.050781 7.054688zm0-34.570313c-2.679688 0-5.359375 1.023438-7.402344 3.0625-4.078125 4.078125-4.078125 10.722656 0 14.800782 4.082031 4.082031 10.722656 4.082031 14.800781 0 4.082031-4.078126 4.082031-10.722657 0-14.800782-2.039062-2.042968-4.71875-3.0625-7.398437-3.0625zm0 0" fill="#0e65e5"/><path d="m358.355469 105.53125c-6.753907-6.753906-17.703125-6.753906-24.457031 0-6.753907 6.75-6.753907 17.703125 0 24.453125 6.753906 6.753906 17.703124 6.753906 24.457031 0 6.753906-6.75 6.753906-17.703125 0-24.453125zm0 0" fill="#d7e9ff"/><path d="m346.128906 141.867188c-6.175781 0-12.355468-2.351563-17.054687-7.054688-9.40625-9.40625-9.40625-24.707031 0-34.113281 9.394531-9.398438 24.707031-9.410157 34.113281 0 9.40625 9.40625 9.40625 24.710937 0 34.113281-4.699219 4.703125-10.878906 7.054688-17.058594 7.054688zm0-34.582032c-2.796875 0-5.421875 1.09375-7.402344 3.066406-4.078124 4.085938-4.078124 10.726563 0 14.808594 3.972657 3.964844 10.859376 3.949219 14.808594 0 4.078125-4.082031 4.078125-10.722656 0-14.808594-1.980468-1.976562-4.605468-3.066406-7.40625-3.066406zm0 0" fill="#0e65e5"/><path d="m403.191406 150.367188c-6.753906-6.753907-17.703125-6.753907-24.457031 0-6.753906 6.753906-6.753906 17.703124 0 24.457031 6.753906 6.753906 17.703125 6.753906 24.457031 0 6.753906-6.753907 6.753906-17.703125 0-24.457031zm0 0" fill="#288eea"/><path d="m390.96875 186.703125c-6.171875 0-12.351562-2.351563-17.054688-7.054687-9.40625-9.402344-9.40625-24.707032 0-34.109376 9.402344-9.40625 24.707032-9.40625 34.105469 0 9.410157 9.40625 9.410157 24.707032 0 34.109376-4.699219 4.703124-10.878906 7.054687-17.050781 7.054687zm0-34.570313c-2.679688 0-5.359375 1.019532-7.402344 3.058594-4.078125 4.082032-4.078125 10.722656 0 14.804688 4.082032 4.082031 10.722656 4.082031 14.800782 0 4.082031-4.082032 4.082031-10.722656 0-14.804688-2.039063-2.039062-4.71875-3.058594-7.398438-3.058594zm0 0" fill="#0e65e5"/><path d="m36.335938 240.042969c-6.753907-6.753907-17.703126-6.753907-24.457032 0-6.753906 6.753906-6.753906 17.703125 0 24.457031 6.753906 6.75 17.703125 6.75 24.457032 0 6.75-6.753906 6.75-17.703125 0-24.457031zm0 0" fill="#288eea"/><path d="m24.109375 276.378906c-6.175781 0-12.355469-2.347656-17.054687-7.054687-9.40625-9.402344-9.40625-24.707031 0-34.109375 9.402343-9.40625 24.707031-9.40625 34.105468 0 9.410156 9.40625 9.410156 24.710937 0 34.109375-4.699218 4.707031-10.878906 7.054687-17.050781 7.054687zm0-34.570312c-2.679687 0-5.363281 1.019531-7.402344 3.0625-4.078125 4.078125-4.078125 10.722656 0 14.800781 4.082031 4.082031 10.722657 4.082031 14.800781 0 4.082032-4.078125 4.082032-10.722656 0-14.800781-2.039062-2.042969-4.71875-3.0625-7.398437-3.0625zm0 0" fill="#0e65e5"/><path d="m81.171875 284.878906c-6.753906-6.753906-17.703125-6.753906-24.457031 0s-6.753906 17.703125 0 24.457032c6.753906 6.753906 17.703125 6.753906 24.457031 0 6.753906-6.753907 6.753906-17.703126 0-24.457032zm0 0" fill="#d7e9ff"/><path d="m68.949219 321.21875c-6.175781 0-12.355469-2.351562-17.054688-7.054688-4.558593-4.550781-7.066406-10.609374-7.066406-17.054687 0-6.441406 2.507813-12.5 7.066406-17.058594 9.105469-9.105469 25-9.109375 34.105469.003907 9.40625 9.40625 9.40625 24.707031 0 34.109374-4.699219 4.703126-10.878906 7.054688-17.050781 7.054688zm0-34.574219c-2.796875 0-5.421875 1.085938-7.402344 3.066407-1.980469 1.980468-3.066406 4.605468-3.066406 7.398437 0 2.796875 1.085937 5.425781 3.066406 7.402344 4.082031 4.085937 10.71875 4.082031 14.800781.003906 4.082032-4.082031 4.082032-10.722656 0-14.804687-1.980468-1.980469-4.605468-3.066407-7.398437-3.066407zm0 0" fill="#0e65e5"/><path d="m130.085938 333.792969c-6.753907-6.75-17.703126-6.75-24.457032 0-6.753906 6.753906-6.753906 17.703125 0 24.457031s17.703125 6.753906 24.457032 0c6.753906-6.753906 6.753906-17.703125 0-24.457031zm0 0" fill="#d7e9ff"/><path d="m117.859375 370.132812c-6.171875 0-12.351563-2.351562-17.050781-7.054687-9.40625-9.402344-9.40625-24.707031 0-34.109375 9.398437-9.40625 24.707031-9.40625 34.105468 0 9.40625 9.402344 9.40625 24.707031 0 34.109375-4.699218 4.707031-10.878906 7.054687-17.054687 7.054687zm0-34.570312c-2.679687 0-5.359375 1.023438-7.398437 3.0625-4.082032 4.078125-4.082032 10.722656 0 14.800781 4.082031 4.082031 10.71875 4.082031 14.800781 0 4.078125-4.078125 4.078125-10.722656 0-14.800781-2.039063-2.042969-4.71875-3.0625-7.402344-3.0625zm0 0" fill="#0e65e5"/><path d="m174.921875 378.632812c-6.75-6.753906-17.703125-6.753906-24.453125 0-6.753906 6.753907-6.753906 17.703126 0 24.457032 6.75 6.753906 17.703125 6.753906 24.453125 0 6.753906-6.753906 6.753906-17.703125 0-24.457032zm0 0" fill="#288eea"/><path d="m162.703125 414.972656c-6.175781 0-12.355469-2.351562-17.054687-7.054687-4.558594-4.550781-7.066407-10.609375-7.066407-17.054688 0-6.441406 2.507813-12.5 7.066407-17.058593 9.402343-9.402344 24.707031-9.40625 34.105468 0 9.40625 9.410156 9.40625 24.710937 0 34.113281-4.699218 4.703125-10.878906 7.054687-17.050781 7.054687zm0-34.582031c-2.796875 0-5.421875 1.09375-7.402344 3.070313-1.980469 1.976562-3.066406 4.609374-3.066406 7.402343 0 2.796875 1.085937 5.421875 3.066406 7.398438 3.960938 3.960937 10.839844 3.957031 14.800781.003906 4.082032-4.078125 4.082032-10.722656 0-14.804687-1.980468-1.976563-4.605468-3.070313-7.398437-3.070313zm0 0" fill="#0e65e5"/><path d="m411.34375 248.195312c-6.753906-6.753906-17.703125-6.753906-24.457031 0-6.753907 6.753907-6.753907 17.703126 0 24.457032 6.753906 6.753906 17.703125 6.753906 24.457031 0s6.753906-17.703125 0-24.457032zm0 0" fill="#94c1ff"/><path d="m399.121094 284.53125c-6.171875 0-12.351563-2.347656-17.054688-7.050781-9.40625-9.40625-9.40625-24.710938 0-34.109375 9.402344-9.410156 24.710938-9.410156 34.109375 0 9.40625 9.402344 9.40625 24.707031 0 34.109375-4.703125 4.703125-10.882812 7.050781-17.054687 7.050781zm0-34.570312c-2.679688 0-5.359375 1.023437-7.398438 3.0625-4.082031 4.078124-4.082031 10.722656 0 14.800781 4.078125 4.082031 10.71875 4.082031 14.796875 0 4.082031-4.078125 4.082031-10.722657 0-14.800781-2.039062-2.039063-4.71875-3.0625-7.398437-3.0625zm0 0" fill="#0e65e5"/><path d="m366.503906 293.035156c-6.75-6.753906-17.703125-6.753906-24.453125 0-6.753906 6.753906-6.753906 17.703125 0 24.457032 6.75 6.753906 17.703125 6.753906 24.453125 0 6.753906-6.753907 6.753906-17.703126 0-24.457032zm0 0" fill="#288eea"/><path d="m354.28125 329.375c-6.171875 0-12.351562-2.351562-17.050781-7.054688-9.410157-9.40625-9.410157-24.710937 0-34.113281 9.398437-9.40625 24.707031-9.40625 34.105469 0 4.558593 4.554688 7.066406 10.609375 7.066406 17.054688 0 6.445312-2.507813 12.5-7.066406 17.0625-4.703126 4.699219-10.882813 7.050781-17.054688 7.050781zm-7.398438-16.707031c4.078126 4.078125 10.71875 4.078125 14.800782 0 1.976562-1.980469 3.066406-4.609375 3.066406-7.40625s-1.089844-5.421875-3.066406-7.398438c-4.082032-4.085937-10.722656-4.085937-14.800782-.003906-4.082031 4.082031-4.082031 10.722656 0 14.808594zm0 0" fill="#0e65e5"/><path d="m317.589844 341.949219c-6.753906-6.753907-17.703125-6.753907-24.457032 0-6.753906 6.753906-6.753906 17.703125 0 24.457031 6.753907 6.753906 17.703126 6.753906 24.457032 0s6.753906-17.703125 0-24.457031zm0 0" fill="#288eea"/><path d="m305.367188 378.285156c-6.171876 0-12.351563-2.347656-17.050782-7.050781-9.40625-9.40625-9.40625-24.710937 0-34.109375 9.398438-9.410156 24.707032-9.410156 34.105469 0 9.40625 9.402344 9.40625 24.707031 0 34.109375-4.699219 4.703125-10.878906 7.050781-17.054687 7.050781zm0-34.570312c-2.679688 0-5.359376 1.023437-7.398438 3.0625-4.082031 4.078125-4.082031 10.722656 0 14.800781 4.082031 4.082031 10.71875 4.082031 14.800781 0 4.078125-4.078125 4.078125-10.722656 0-14.800781-2.042969-2.039063-4.722656-3.0625-7.402343-3.0625zm0 0" fill="#0e65e5"/><path d="m272.753906 386.785156c-6.753906-6.753906-17.703125-6.753906-24.457031 0s-6.753906 17.703125 0 24.457032c6.753906 6.753906 17.703125 6.753906 24.457031 0 6.753906-6.753907 6.753906-17.703126 0-24.457032zm0 0" fill="#288eea"/><path d="m260.527344 423.136719c-6.4375 0-12.5-2.511719-17.050782-7.066407-9.410156-9.410156-9.410156-24.710937 0-34.109374 9.398438-9.410157 24.707032-9.410157 34.105469 0 4.558594 4.550781 7.066407 10.609374 7.066407 17.054687 0 6.441406-2.507813 12.5-7.066407 17.054687-4.554687 4.554688-10.613281 7.066407-17.054687 7.066407zm0-34.589844c-2.792969 0-5.421875 1.089844-7.398438 3.066406-1.972656 1.976563-3.066406 4.605469-3.066406 7.402344s1.09375 5.425781 3.066406 7.402344c3.957032 3.957031 10.839844 3.957031 14.800782 0 1.976562-1.980469 3.066406-4.605469 3.066406-7.402344s-1.089844-5.421875-3.066406-7.398437c-1.980469-1.980469-4.609376-3.070313-7.402344-3.070313zm0 0" fill="#0e65e5"/><path d="m174.925781 11.777344c-6.753906-6.753906-17.703125-6.753906-24.457031 0-6.753906 6.75-6.753906 17.703125 0 24.453125 6.753906 6.753906 17.703125 6.753906 24.457031 0 6.753907-6.75 6.753907-17.703125 0-24.453125zm0 0" fill="#288eea"/><path d="m162.703125 48.113281c-6.175781 0-12.347656-2.351562-17.054687-7.050781 0 0 0 0 0-.003906-4.558594-4.554688-7.066407-10.613282-7.066407-17.054688 0-6.445312 2.507813-12.5 7.066407-17.058594 9.105468-9.105468 25-9.109374 34.105468.003907 9.40625 9.40625 9.40625 24.707031 0 34.109375-4.699218 4.703125-10.878906 7.054687-17.050781 7.054687zm0-34.578125c-2.796875 0-5.421875 1.089844-7.402344 3.066406-1.980469 1.980469-3.066406 4.609376-3.066406 7.402344 0 2.796875 1.085937 5.421875 3.066406 7.398438v.003906c3.960938 3.953125 10.839844 3.953125 14.800781 0 1.972657-1.976562 3.066407-4.605469 3.066407-7.402344 0-2.792968-1.09375-5.425781-3.066407-7.402344-1.980468-1.976562-4.605468-3.066406-7.398437-3.066406zm0 0" fill="#0e65e5"/><path d="m130.089844 56.613281c-6.753906-6.753906-17.703125-6.753906-24.457032 0-6.753906 6.753907-6.753906 17.703125 0 24.457031 6.753907 6.753907 17.703126 6.753907 24.457032 0 6.753906-6.753906 6.753906-17.703124 0-24.457031zm0 0" fill="#94c1ff"/><path d="m117.859375 92.949219c-6.171875 0-12.351563-2.351563-17.050781-7.054688-9.40625-9.402343-9.40625-24.707031 0-34.109375 9.398437-9.40625 24.707031-9.40625 34.105468 0 9.40625 9.40625 9.40625 24.707032 0 34.109375-4.699218 4.703125-10.878906 7.054688-17.054687 7.054688zm0-34.570313c-2.679687 0-5.359375 1.023438-7.398437 3.0625-4.082032 4.078125-4.082032 10.722656 0 14.800782 4.082031 4.082031 10.71875 4.082031 14.800781 0 4.078125-4.078126 4.078125-10.722657 0-14.800782-2.039063-2.042968-4.71875-3.0625-7.402344-3.0625zm0 0" fill="#0e65e5"/><path d="m81.175781 105.527344c-6.753906-6.753906-17.703125-6.753906-24.457031 0s-6.753906 17.703125 0 24.457031 17.703125 6.753906 24.457031 0c6.753907-6.753906 6.753907-17.703125 0-24.457031zm0 0" fill="#288eea"/><path d="m68.949219 141.867188c-6.175781 0-12.347657-2.351563-17.054688-7.050782 0 0 0 0 0-.003906-4.558593-4.558594-7.066406-10.613281-7.066406-17.058594 0-6.441406 2.507813-12.5 7.066406-17.058594 9.402344-9.398437 24.707031-9.402343 34.105469.003907 9.40625 9.40625 9.40625 24.710937 0 34.113281-4.699219 4.703125-10.878906 7.054688-17.050781 7.054688zm0-34.574219c-2.679688 0-5.363281 1.019531-7.402344 3.058593-1.980469 1.980469-3.066406 4.613282-3.066406 7.40625 0 2.796876 1.085937 5.421876 3.066406 7.398438v.003906c4.082031 4.082032 10.71875 4.082032 14.800781 0 4.082032-4.082031 4.082032-10.722656 0-14.808594-2.039062-2.039062-4.71875-3.058593-7.398437-3.058593zm0 0" fill="#0e65e5"/><path d="m36.335938 150.367188c-6.753907-6.753907-17.703126-6.753907-24.457032 0-6.753906 6.75-6.753906 17.703124 0 24.453124 6.753906 6.753907 17.703125 6.753907 24.457032 0 6.753906-6.75 6.753906-17.703124 0-24.453124zm0 0" fill="#94c1ff"/><path d="m24.109375 186.703125c-6.175781 0-12.355469-2.351563-17.054687-7.054687-9.40625-9.402344-9.40625-24.707032 0-34.109376 9.402343-9.40625 24.707031-9.40625 34.105468 0 9.410156 9.40625 9.410156 24.707032 0 34.109376-4.699218 4.703124-10.878906 7.054687-17.050781 7.054687zm0-34.570313c-2.679687 0-5.363281 1.019532-7.402344 3.058594-4.078125 4.082032-4.078125 10.722656 0 14.804688 4.082031 4.082031 10.722657 4.082031 14.800781 0 4.082032-4.082032 4.082032-10.722656 0-14.804688-2.039062-2.039062-4.71875-3.058594-7.398437-3.058594zm0 0" fill="#0e65e5"/></svg>